<?xml version="1.0" encoding="UTF-8" standalone="no"?>
<svg
   width="474"
   height="474"
   version="1.1"
   id="svg2"
   sodipodi:docname="icons.svg"
   inkscape:version="1.4.4 (dcaf3e7, 2026-05-05)"
   xmlns:inkscape="http://www.inkscape.org/namespaces/inkscape"
   xmlns:sodipodi="http://sodipodi.sourceforge.net/DTD/sodipodi-0.dtd"
   xmlns="http://www.w3.org/2000/svg"
   xmlns:svg="http://www.w3.org/2000/svg">
  <defs
     id="defs2" />
  <sodipodi:namedview
     id="namedview2"
     pagecolor="#505050"
     bordercolor="#eeeeee"
     borderopacity="1"
     inkscape:showpageshadow="0"
     inkscape:pageopacity="0"
     inkscape:pagecheckerboard="0"
     inkscape:deskcolor="#d1d1d1"
     showgrid="false"
     inkscape:zoom="0.90509668"
     inkscape:cx="403.27184"
     inkscape:cy="179.53883"
     inkscape:window-width="2688"
     inkscape:window-height="1341"
     inkscape:window-x="2188"
     inkscape:window-y="0"
     inkscape:window-maximized="0"
     inkscape:current-layer="svg2" />
  <g
     id="g1"
     inkscape:label="icon"
     style="display:inline">
    <rect
       style="fill:#ffffff;fill-opacity:1;stroke:none;stroke-width:0"
       id="rect8"
       width="474"
       height="474"
       x="61.871845"
       y="-174.56699"
       transform="translate(-61.871845,174.56699)"
       inkscape:label="white" />
    <path
       fill="#268bcc"
       d="M 0,0 V 474 H 474"
       id="path2"
       style="display:inline"
       inkscape:label="blue" />
    <path
       style="font-size:192px;line-height:1.25;font-family:'Snv Becker';-inkscape-font-specification:'Snv Becker';display:none;stroke-width:0.477769"
       d="M 116.7895,250.72353 V 122.75478 h 54 q 14.4375,-0.0937 24.1875,9.84375 9.65625,10.21875 9.5625,24.375 v 4.21875 q 0,12.84375 -8.4375,22.59375 -10.21875,11.53125 -25.40625,11.4375 H 140.227 v 55.5 z m 23.4375,-76.78125 h 27.375 q 6,0 9.65625,-3.5625 3.84375,-3.75 3.84375,-9.1875 v -4.21875 q 0,-5.25 -3.84375,-9.09375 -3.75,-3.84375 -9.5625,-3.84375 H 140.227 Z"
       id="text2"
       transform="matrix(2.0930654,0,0,2.0930654,-76.765784,-153.73804)"
       aria-label="P"
       inkscape:label="P" />
    <path
       id="path5"
       style="font-size:192px;line-height:1.25;font-family:'Snv Becker';-inkscape-font-specification:'Snv Becker';display:inline;fill:#268bcc;stroke-width:0.477769"
       d="m 116.78919,122.75496 v 27.69145 l 23.43814,23.43814 v -29.84852 h 27.4686 c 3.875,0 7.062,1.28148 9.562,3.84398 2.5625,2.5625 3.84398,5.59382 3.84398,9.09382 v 4.21826 c 0,3.625 -1.28148,6.68772 -3.84398,9.18772 -2.4375,2.375 -5.6559,3.56227 -9.6559,3.56227 h -27.31717 l 21.28173,21.28174 h 9.12887 c 10.125,0.0625 18.59425,-3.75053 25.40675,-11.43803 5.625,-6.5 8.43718,-14.0312 8.43718,-22.5937 v -4.21826 c 0.0625,-9.4375 -3.12516,-17.56267 -9.56266,-24.37517 -6.5,-6.62496 -14.56237,-9.90616 -24.18737,-9.8437 z"
       transform="matrix(2.0930654,0,0,2.0930654,-76.765784,-153.73804)" />
    <path
       id="path6"
       style="font-size:192px;line-height:1.25;font-family:'Snv Becker';-inkscape-font-specification:'Snv Becker';display:inline;fill:#ffffff;stroke-width:0.477769"
       d="m 116.78919,150.44641 v 100.27735 h 23.43814 v -55.49994 h 21.33926 l -21.28173,-21.28174 h -0.0575 v -0.0575 z"
       transform="matrix(2.0930654,0,0,2.0930654,-76.765784,-153.73804)" />
  </g>
  <g
     id="g9"
     inkscape:label="white zone"
     style="display:inline">
    <rect
       style="display:inline;fill:#ffffff;fill-opacity:1;stroke:#268bcc;stroke-width:22.6772;stroke-opacity:1"
       id="rect9"
       width="474"
       height="474"
       x="61.871845"
       y="-174.56699"
       transform="translate(-61.871845,174.56699)"
       inkscape:label="white" />
    <path
       style="font-size:192px;line-height:1.25;font-family:'Snv Becker';-inkscape-font-specification:'Snv Becker';display:inline;fill:#268bcc;stroke-width:0.477769"
       d="M 116.7895,250.72353 V 122.75478 h 54 q 14.4375,-0.0937 24.1875,9.84375 9.65625,10.21875 9.5625,24.375 v 4.21875 q 0,12.84375 -8.4375,22.59375 -10.21875,11.53125 -25.40625,11.4375 H 140.227 v 55.5 z m 23.4375,-76.78125 h 27.375 q 6,0 9.65625,-3.5625 3.84375,-3.75 3.84375,-9.1875 v -4.21875 q 0,-5.25 -3.84375,-9.09375 -3.75,-3.84375 -9.5625,-3.84375 H 140.227 Z"
       id="path8"
       transform="matrix(2.0930654,0,0,2.0930654,-79.282249,-153.73804)"
       aria-label="P"
       inkscape:label="P" />
  </g>
  <g
     id="g10"
     inkscape:label="blue zone"
     style="display:inline">
    <rect
       style="display:inline;fill:#268bcc;fill-opacity:1;stroke:none;stroke-width:22.6772;stroke-opacity:1"
       id="rect10"
       width="474"
       height="474"
       x="61.871845"
       y="-174.56699"
       transform="translate(-61.871845,174.56699)"
       inkscape:label="blue" />
    <path
       style="font-size:192px;line-height:1.25;font-family:'Snv Becker';-inkscape-font-specification:'Snv Becker';display:inline;fill:#ffffff;stroke-width:0.477769"
       d="M 116.7895,250.72353 V 122.75478 h 54 q 14.4375,-0.0937 24.1875,9.84375 9.65625,10.21875 9.5625,24.375 v 4.21875 q 0,12.84375 -8.4375,22.59375 -10.21875,11.53125 -25.40625,11.4375 H 140.227 v 55.5 z m 23.4375,-76.78125 h 27.375 q 6,0 9.65625,-3.5625 3.84375,-3.75 3.84375,-9.1875 v -4.21875 q 0,-5.25 -3.84375,-9.09375 -3.75,-3.84375 -9.5625,-3.84375 H 140.227 Z"
       id="path10"
       transform="matrix(2.0930654,0,0,2.0930654,-79.282249,-153.73804)"
       aria-label="P"
       inkscape:label="P" />
  </g>
  <g
     id="g2"
     inkscape:label="destination"
     style="display:inline">
    <text
       xml:space="preserve"
       style="font-style:normal;font-variant:normal;font-weight:normal;font-stretch:normal;font-size:14.6667px;line-height:1.25;font-family:'Snv Becker';-inkscape-font-specification:'Snv Becker';stroke-width:0.150878"
       x="217.65631"
       y="175.67184"
       id="text3"
       transform="matrix(6.6278734,0,0,6.6278734,-1441.0741,-1031.7125)"><tspan
         sodipodi:role="line"
         id="tspan2"
         x="217.65631"
         y="175.67184"
         style="stroke-width:0.150878">Destination</tspan></text>
    <path
       id="rect3"
       style="stroke:#000000;stroke-width:22.6772"
       d="m 208.81682,142.52539 v 187.82617 h -80.0957 l 109.375,109.375 109.375,-109.375 H 267.37541 V 142.52539 Z"
       transform="translate(-1.0961151,18.238238)" />
  </g>
</svg>
